<svg width="80" height="64" viewBox="0 0 80 64" fill="none" xmlns="http://www.w3.org/2000/svg">
<path d="M40.2522 52.8137C40.3361 52.6492 40.4199 52.4831 40.4989 52.3171C40.5038 52.3058 40.5104 52.2945 40.5151 52.2832C40.6006 52.1042 40.6828 51.9218 40.7635 51.7396C40.7845 51.6927 40.8039 51.6461 40.8248 51.5993C40.8844 51.459 40.9442 51.3187 41.0006 51.1767C41.0217 51.1267 41.0409 51.0751 41.0619 51.0251C42.3926 47.651 42.8281 43.8735 42.1248 40.0381C41.7088 37.7688 40.9168 35.6559 39.828 33.7511C40.1328 32.8253 40.3538 31.914 40.4071 31.0897C40.5345 29.0978 39.899 29.564 39.899 29.564C39.899 29.564 39.6634 29.1946 39.3715 29.385C39.3458 29.3558 39.3102 29.3365 39.2683 29.3349C39.2006 29.3301 39.1506 29.3705 39.1295 29.4252C38.9779 29.3914 38.7215 29.4188 38.5005 29.8608C38.5005 29.8608 37.9924 29.564 37.652 30.1994C37.6117 30.2769 37.5617 30.3753 37.5053 30.4898C36.273 29.0817 34.8519 27.8544 33.2888 26.8398C33.5776 26.7768 33.8357 26.651 34.0551 26.4479C34.5792 25.964 34.7116 25.1495 34.4374 24.0914C34.3229 23.6511 34.139 23.1721 33.8986 22.6689C34.1567 22.5399 34.4034 22.4043 34.6292 22.2625C34.6648 22.2399 34.6858 22.2044 34.6937 22.1673C34.8374 22.3108 35.0358 22.3996 35.2551 22.3996C35.6938 22.3996 36.0503 22.043 36.0503 21.6043C36.0503 21.1657 35.6938 20.8092 35.2551 20.8092C34.8164 20.8092 34.46 21.1657 34.46 21.6043C34.46 21.7495 34.5019 21.8818 34.5679 21.9996C34.5373 21.9962 34.5034 22.0011 34.4745 22.0189C34.255 22.156 34.0179 22.2866 33.7696 22.4124C33.4921 21.8704 33.1517 21.306 32.7566 20.7351C33.1002 19.7801 33.3535 18.8173 33.4695 17.9383C33.7905 17.9898 34.0938 18.0624 34.3712 18.156C35.2244 18.4431 35.7568 18.906 35.9535 19.5317C36.0874 19.9592 36.0294 20.3883 35.7777 20.8077C35.7374 20.8754 35.7585 20.964 35.8277 21.0059C35.8503 21.0205 35.8762 21.0269 35.902 21.0269C35.9503 21.0269 35.9988 21.0012 36.0261 20.9576C36.3213 20.4656 36.3907 19.956 36.2294 19.4463C36.0035 18.7285 35.41 18.2012 34.4632 17.8834C34.1664 17.7834 33.8437 17.7076 33.5034 17.6511C33.6485 16.1818 33.3776 14.9899 32.455 14.5463C31.8114 14.2367 31.0049 14.4141 30.1225 15.056C29.6451 15.4027 29.1483 15.8819 28.658 16.4609C27.8337 15.8689 27.0498 15.4689 26.3594 15.2995C25.4675 15.0802 24.7642 15.2479 24.2673 15.7995C23.5431 16.6027 23.548 17.8738 24.2818 19.4753C24.285 19.4834 24.2899 19.4915 24.2931 19.4995C24.0253 19.6496 23.7754 19.8059 23.5512 19.9641C23.4867 20.0109 23.4705 20.0995 23.5174 20.1657C23.564 20.2302 23.6528 20.2463 23.719 20.1995C23.9302 20.0496 24.1658 19.9027 24.4189 19.7608C24.7303 20.3834 25.1448 21.0399 25.6335 21.6947C25.3562 22.4253 25.1561 23.1204 25.0287 23.7624C24.5964 23.7027 24.1592 23.6592 23.7205 23.6285C23.6496 23.6028 23.577 23.5785 23.5093 23.5511C22.856 23.2769 22.472 22.8947 22.3672 22.4141C22.3076 22.1414 22.3383 21.8608 22.4592 21.577C22.4737 21.543 22.472 21.5076 22.4624 21.4753C22.5995 21.577 22.7672 21.6382 22.9511 21.6382C23.4076 21.6382 23.7771 21.2688 23.7771 20.8124C23.7771 20.356 23.4076 19.9866 22.9511 19.9866C22.4947 19.9866 22.1252 20.356 22.1252 20.8124C22.1252 21.035 22.214 21.235 22.356 21.3833C22.2898 21.3705 22.2221 21.4012 22.1946 21.4657C22.0511 21.8044 22.0139 22.1446 22.0865 22.4769C22.185 22.9269 22.4786 23.3011 22.9544 23.5915C21.6656 23.5527 20.3542 23.6366 19.038 23.8576C16.8298 24.2285 14.7684 24.9495 12.899 25.9479C12.7634 25.9414 12.6295 25.9334 12.4909 25.9302C8.03086 25.8124 4.31928 27.7752 2.68056 30.4994L0.694921 30.6575C0.152952 30.701 -0.166377 31.2866 0.0899781 31.7656L1.9434 35.2236C2.11282 36.1881 2.34827 37.0252 2.34827 37.0252C2.34827 37.0252 1.87081 38.2961 1.93532 39.6638C1.9643 40.2929 2.11435 40.9962 2.36443 41.709C2.17565 43.6412 2.26273 45.6364 2.6676 47.6461C3.47247 51.6429 5.43721 55.1364 8.14538 57.8396C8.14538 57.8396 8.14538 57.8396 8.14705 57.8396C8.27927 57.9718 8.41316 58.1008 8.54858 58.2283C8.56321 58.2428 8.57924 58.2572 8.5954 58.2717C8.72441 58.3928 8.8551 58.5121 8.98731 58.6298C8.99707 58.6379 9.00515 58.646 9.01476 58.654C9.44388 59.0347 9.88902 59.3976 10.3488 59.7412C10.3665 59.7557 10.3858 59.7685 10.4035 59.7831C10.5406 59.8847 10.6794 59.9847 10.8197 60.0831C10.8359 60.0944 10.8503 60.1057 10.8665 60.1153C11.3327 60.4411 11.8134 60.7475 12.307 61.033C12.3311 61.0476 12.3553 61.0604 12.3796 61.0749C12.5199 61.1556 12.6634 61.2363 12.8053 61.3137C12.8296 61.3265 12.8537 61.3412 12.8779 61.354C13.2134 61.5347 13.5538 61.7056 13.9006 61.8685C13.9022 61.8702 13.9054 61.8702 13.907 61.8717C14.07 61.9475 14.2345 62.0218 14.4006 62.0944C14.4329 62.1088 14.4651 62.1218 14.4974 62.1363C14.6377 62.1959 14.7797 62.2557 14.9217 62.3121C14.957 62.3266 14.9909 62.3396 15.0264 62.3541C15.1861 62.4169 15.3458 62.4782 15.5056 62.538C15.5184 62.5427 15.5297 62.5476 15.5426 62.5525C15.7233 62.6185 15.9056 62.6815 16.0895 62.7428C16.0975 62.746 16.104 62.7475 16.112 62.7492C16.2781 62.8041 16.4443 62.8556 16.6104 62.9073C16.6523 62.9201 16.6943 62.9314 16.7362 62.9444C16.8733 62.9846 17.0104 63.0234 17.1492 63.0621C17.196 63.0751 17.2411 63.0879 17.2879 63.0992C17.4363 63.1379 17.5862 63.1766 17.7363 63.2122C17.7654 63.2186 17.796 63.2266 17.825 63.233C18.0089 63.2767 18.1944 63.3169 18.3799 63.3557C18.3944 63.3589 18.4073 63.3605 18.4219 63.3637C18.588 63.3976 18.7525 63.4282 18.9202 63.4572C18.9703 63.4653 19.0203 63.4751 19.0718 63.483C19.2057 63.5057 19.3396 63.5266 19.4735 63.546C19.5284 63.5541 19.5848 63.5621 19.6397 63.5702C19.78 63.5894 19.9203 63.6073 20.0623 63.6234C20.1057 63.6282 20.151 63.6347 20.1945 63.6395C20.3801 63.6605 20.5672 63.6782 20.7543 63.6943C20.7703 63.696 20.7882 63.696 20.8042 63.6976C20.9719 63.7105 21.1381 63.7218 21.3076 63.7314C21.364 63.7346 21.4204 63.7363 21.4785 63.7395C21.6092 63.7459 21.7414 63.7508 21.8721 63.754C21.9349 63.7556 21.9962 63.7572 22.0592 63.7572C22.1946 63.7589 22.3285 63.7605 22.4641 63.7589C22.5173 63.7589 22.5705 63.7589 22.6253 63.7589C22.8124 63.7572 23.0012 63.7524 23.1898 63.7444C23.2028 63.7444 23.2157 63.7427 23.2285 63.7427C23.4028 63.7346 23.577 63.725 23.7528 63.7137C23.8124 63.7088 23.8722 63.704 23.9318 63.6992C24.0625 63.6895 24.1932 63.6782 24.3238 63.6654C24.3899 63.6588 24.4561 63.6524 24.5222 63.6443C24.6545 63.6298 24.7851 63.6137 24.9174 63.5975C24.9771 63.5894 25.0352 63.583 25.0948 63.5749C25.2836 63.5492 25.4722 63.5217 25.6627 63.4895C25.8723 63.454 26.0787 63.4153 26.2852 63.375C26.3465 63.3637 26.4062 63.3508 26.4675 63.3378C26.6208 63.3056 26.7739 63.2718 26.9256 63.2363C26.9836 63.2234 27.0434 63.2088 27.1015 63.196C27.3031 63.1475 27.5047 63.096 27.7047 63.0411C27.7192 63.0379 27.732 63.0331 27.7467 63.0298C27.9321 62.9782 28.1175 62.9233 28.3014 62.8669C28.3612 62.8492 28.4192 62.8298 28.4773 62.812C28.6241 62.7653 28.7708 62.7169 28.916 62.667C28.9709 62.6476 29.0241 62.6298 29.0789 62.6104C29.2709 62.5427 29.4629 62.4718 29.6515 62.3992C29.6742 62.3911 29.6968 62.3815 29.7193 62.3717C29.8871 62.3056 30.0532 62.2379 30.2194 62.1685C30.2758 62.1444 30.3322 62.1201 30.3871 62.0959C30.5274 62.0347 30.6677 61.9718 30.8065 61.9089C30.8548 61.8862 30.9048 61.8636 30.9532 61.8411C31.1356 61.7557 31.3161 61.6669 31.4936 61.5766C31.5211 61.5621 31.5484 61.5475 31.5775 61.533C31.7291 61.454 31.8807 61.375 32.0292 61.2927C32.0824 61.2637 32.1356 61.2347 32.1889 61.2041C32.3227 61.1283 32.455 61.0524 32.5872 60.975C32.6308 60.9491 32.6744 60.9233 32.7179 60.8976C32.8888 60.7943 33.0582 60.6896 33.2243 60.5831C33.255 60.5637 33.2856 60.5427 33.3147 60.5233C33.4534 60.4331 33.5889 60.3428 33.7243 60.2492C33.7744 60.2153 33.8228 60.1814 33.8712 60.1476C33.9987 60.0588 34.1245 59.9686 34.2486 59.8766C34.2857 59.8492 34.3244 59.8217 34.3615 59.7944C34.5196 59.6767 34.6777 59.5556 34.8325 59.433C34.8632 59.4089 34.8938 59.3831 34.9261 59.3572C35.0503 59.2573 35.1744 59.1556 35.297 59.0524C35.3051 59.046 35.3132 59.0396 35.3196 59.033C35.3229 59.0315 35.3261 59.0283 35.3277 59.0266C35.3615 58.9976 35.3955 58.967 35.4309 58.9378C35.5486 58.8363 35.6648 58.7347 35.7794 58.6315C35.7923 58.6202 35.8051 58.6089 35.8164 58.5991C35.8375 58.5798 35.8584 58.5621 35.8794 58.5427C36.0246 58.4105 36.1681 58.2749 36.31 58.1378C36.3407 58.1072 36.3713 58.0767 36.402 58.0476C36.5084 57.9443 36.6133 57.8396 36.7164 57.7331C36.7279 57.7218 36.7392 57.7105 36.7488 57.6993C36.7843 57.6621 36.8197 57.6267 36.8552 57.5895C36.9536 57.4862 37.0504 57.3831 37.1472 57.2782C37.1633 57.2621 37.1779 57.2444 37.1939 57.2282C37.2165 57.2041 37.2392 57.1782 37.2618 57.1541C37.394 57.0072 37.523 56.8589 37.652 56.7089C37.6811 56.6751 37.7101 56.6396 37.7392 56.604C37.8278 56.4993 37.9149 56.3928 38.0005 56.2864C38.0117 56.2718 38.023 56.2589 38.0343 56.2444C38.0698 56.1992 38.1054 56.1557 38.1408 56.1106C38.2214 56.0073 38.3004 55.9041 38.3796 55.8008C38.394 55.7815 38.4085 55.7621 38.4247 55.7427C38.4328 55.7331 38.4392 55.7234 38.4473 55.7121C38.465 55.688 38.4843 55.6637 38.5022 55.6412C38.6199 55.483 38.7344 55.3218 38.8473 55.1605C38.8747 55.1218 38.9005 55.083 38.9279 55.0428C38.9988 54.938 39.0699 54.8348 39.1393 54.7283C39.1457 54.7202 39.1506 54.7105 39.1553 54.7024C39.1651 54.6879 39.1731 54.6734 39.1828 54.6589C39.2134 54.6121 39.2441 54.5653 39.2747 54.5186C39.3392 54.4169 39.4037 54.3154 39.4667 54.2121C39.4796 54.1912 39.4925 54.1719 39.5054 54.1508C39.5216 54.1251 39.5376 54.0976 39.5538 54.0718C39.5651 54.0525 39.5763 54.0348 39.5876 54.0154C39.6893 53.846 39.7892 53.6734 39.8861 53.5009C39.9103 53.4573 39.9329 53.4153 39.957 53.3719C40.0135 53.2702 40.0683 53.1686 40.1232 53.0654C40.1409 53.0332 40.157 52.9992 40.1747 52.967C40.2022 52.9121 40.228 52.8638 40.2522 52.8137ZM28.9338 24.701C28.7289 24.5366 28.5256 24.3672 28.3272 24.1914C29.2338 24.093 30.1596 23.9253 31.0468 23.6979C30.7403 24.2156 30.4146 24.6995 30.0774 25.1382C29.7015 24.9833 29.3193 24.8366 28.9338 24.701ZM28.0483 23.9398C27.9063 23.8091 27.7676 23.6753 27.6305 23.5415C27.0304 22.9495 26.4675 22.3123 25.9722 21.6641C26.3852 20.5978 26.9288 19.5044 27.5449 18.506C28.3451 18.2785 29.1806 18.0963 30.0016 17.9802C30.8806 18.8156 31.7259 19.7882 32.4307 20.7817C32.3308 21.0527 32.2242 21.322 32.1114 21.5866C31.8534 22.1931 31.5598 22.7898 31.2435 23.3543C30.2096 23.6398 29.1095 23.8398 28.0483 23.9398ZM28.1982 24.4592C27.9692 24.3881 27.7386 24.3221 27.5063 24.2608C27.6514 24.251 27.795 24.2446 27.9402 24.2318C28.0241 24.3091 28.1111 24.3834 28.1982 24.4592ZM34.1567 24.164C34.4051 25.1253 34.305 25.822 33.8582 26.2365C33.6034 26.4737 33.2775 26.585 32.9066 26.5995C32.0888 26.093 31.2339 25.6447 30.3499 25.2592C30.7275 24.7608 31.0952 24.1995 31.4387 23.5962C32.2276 23.3752 32.9744 23.1059 33.6389 22.7962C33.868 23.2705 34.0453 23.7318 34.1567 24.164ZM33.5131 22.5382C32.9405 22.806 32.3049 23.0431 31.6339 23.243C31.9017 22.7479 32.1517 22.2301 32.3792 21.6995C32.4679 21.4915 32.5533 21.2801 32.634 21.0689C32.9679 21.5624 33.2647 22.056 33.5131 22.5382ZM32.5533 20.4447C32.1469 19.8834 31.6936 19.3205 31.1984 18.7737C30.9291 18.4754 30.6581 18.1963 30.3871 17.9302C31.3774 17.8125 32.3388 17.7931 33.184 17.8963C33.0776 18.6995 32.8518 19.577 32.5533 20.4447ZM30.2935 15.2882C30.8484 14.885 31.3452 14.6834 31.7823 14.6834C31.9775 14.6834 32.1614 14.7238 32.3308 14.806C33.1259 15.1883 33.3501 16.2706 33.2179 17.6077C32.2727 17.4883 31.2016 17.5189 30.1081 17.6641C29.7 17.2801 29.2919 16.935 28.8934 16.6334C29.3532 16.0916 29.8258 15.6286 30.2935 15.2882ZM28.6999 16.8656C29.0403 17.1238 29.3822 17.4093 29.7225 17.7173C29.0725 17.8189 28.4208 17.9577 27.7853 18.1286C28.0789 17.6801 28.3853 17.256 28.6999 16.8656ZM24.4834 15.9898C24.7819 15.6592 25.1739 15.4947 25.6561 15.4947C25.853 15.4947 26.0659 15.5221 26.2917 15.5786C26.945 15.7382 27.6934 16.1382 28.466 16.6947C28.0886 17.1609 27.7175 17.6835 27.3612 18.2479C26.3288 18.5512 25.361 18.9333 24.5481 19.3608C23.9206 17.9947 23.7899 16.7592 24.4834 15.9898ZM24.6739 19.6222C25.3868 19.2479 26.2287 18.9092 27.1272 18.6302C26.8627 19.0738 26.6078 19.5383 26.369 20.0205C26.1417 20.4818 25.9384 20.935 25.761 21.3786C25.3304 20.7915 24.9609 20.198 24.6739 19.6222ZM25.8545 21.9802C26.3256 22.585 26.8562 23.1834 27.4272 23.7463C27.5047 23.8221 27.5837 23.8978 27.6628 23.9721C27.2611 24.0011 26.8691 24.0156 26.4884 24.014C26.1046 23.9317 25.7174 23.8623 25.3287 23.8027C25.4464 23.2285 25.6255 22.6124 25.8545 21.9802ZM79.7999 37.9816C79.9708 38.4977 79.5546 39.0188 79.0144 38.9688L73.3897 38.4429C72.6397 38.3736 71.8881 38.5671 71.267 38.9945C68.0024 41.2364 64.0408 42.5381 59.7743 42.5106C59.597 42.509 59.4212 42.5058 59.2453 42.4993C59.1872 42.4977 59.1308 42.4945 59.0727 42.4913C58.9534 42.4864 58.8356 42.4817 58.7178 42.4751C58.6518 42.4719 58.5856 42.4655 58.5211 42.4606C58.4115 42.4525 58.3017 42.4461 58.1937 42.4364C58.1259 42.43 58.0582 42.4236 57.9888 42.4171C57.8823 42.4074 57.7776 42.3961 57.671 42.3848C57.6033 42.3767 57.5339 42.3687 57.4662 42.3606C57.3614 42.3478 57.2565 42.3348 57.1517 42.3203C57.0839 42.3106 57.0178 42.3009 56.95 42.2913C56.8452 42.2752 56.7388 42.259 56.6339 42.2413C56.5693 42.23 56.5048 42.2187 56.4387 42.2075C56.3307 42.1881 56.2242 42.1687 56.1177 42.1477C56.0565 42.1364 55.9952 42.1236 55.9339 42.1123C55.8241 42.0897 55.7129 42.067 55.6031 42.0429C55.5467 42.03 55.4903 42.0171 55.4322 42.0042C55.3177 41.9784 55.2031 41.951 55.0903 41.922C55.0386 41.909 54.9886 41.8961 54.937 41.8833C54.8161 41.8526 54.695 41.8187 54.5756 41.7864C54.5322 41.7751 54.4902 41.7622 54.4466 41.7509C54.3144 41.7138 54.1837 41.6736 54.0515 41.6332C54.0208 41.6236 53.9902 41.6155 53.9595 41.6059C53.8063 41.5574 53.6547 41.509 53.5031 41.4573C53.495 41.4541 53.4869 41.4526 53.4789 41.4494C53.3692 41.4122 53.2594 41.3736 53.1498 41.3332C53.1191 41.3219 53.0885 41.3123 53.0578 41.301C52.8288 41.2172 52.6014 41.1284 52.3756 41.0364C52.3449 41.0235 52.3159 41.0107 52.2853 40.9994C51.8126 40.8042 51.3481 40.5913 50.8948 40.3606C50.8819 40.3542 50.8691 40.3478 50.8561 40.3412C50.6271 40.2252 50.3997 40.1026 50.1754 39.9784C50.1641 39.9719 50.1528 39.9655 50.1415 39.9591C49.448 39.5703 48.7785 39.1397 48.1382 38.6735C43.1508 35.0446 39.8748 29.1849 39.8183 22.5963C39.757 15.3561 43.5266 8.99149 49.2238 5.40614C50.4625 3.00128 53.2224 0.588332 56.9791 0.104461C62.2359 -0.57293 65.7538 2.26579 65.7538 2.26579C65.7538 2.26579 67.6184 -0.150362 71.7316 1.88348C74.0204 3.01576 74.2995 5.59478 73.4591 7.62054C77.3512 11.1867 79.8482 16.256 79.9934 21.8947C80.0515 24.1818 79.7256 26.3849 79.0789 28.4447C78.9643 28.8091 78.8401 29.1687 78.7062 29.5253C78.703 29.5317 78.7014 29.5398 78.6982 29.5462C78.6369 29.7058 78.574 29.8656 78.5094 30.0236C78.5014 30.0447 78.4933 30.0672 78.4837 30.0881C78.4111 30.264 78.3368 30.4381 78.2594 30.6107C77.9304 31.3478 77.8836 32.1801 78.1369 32.9462L79.7999 37.9816ZM31.0581 20.843C31.0581 21.8785 30.2177 22.7189 29.1821 22.7189C28.1467 22.7189 27.3063 21.8785 27.3063 20.843C27.3063 19.8076 28.1467 18.9673 29.1821 18.9673C30.2177 18.9673 31.0581 19.8059 31.0581 20.843Z" fill="#4298B4"/>
<path d="M35.1052 49.78C37.0891 49.8057 39.2586 50.0961 41.2716 50.4718C38.8877 57.0798 33.1002 62.2476 25.661 63.4879C19.0509 64.5895 12.5957 62.2815 8.14706 57.8395L11.2198 56.6508C11.2198 56.6508 12.2585 54.2541 12.4973 53.7751C12.7376 53.2961 20.3269 51.4589 21.2043 51.2993C22.0833 51.1396 24.1592 51.5396 24.1592 51.5396C24.1592 51.5396 29.1144 49.6993 35.1052 49.78ZM61.5633 35.5606C61.2568 35.5606 61.0068 35.809 61.0068 36.1171C61.0068 36.4236 61.2551 36.6735 61.5633 36.6735C61.8713 36.6735 62.1197 36.4252 62.1197 36.1171C62.1197 35.8107 61.8713 35.5606 61.5633 35.5606Z" fill="white"/>
<path d="M36.0503 21.606C36.0503 22.0447 35.6938 22.4011 35.2551 22.4011C34.8163 22.4011 34.4599 22.0447 34.4599 21.606C34.4599 21.1672 34.8163 20.8109 35.2551 20.8109C35.6938 20.8109 36.0503 21.1656 36.0503 21.606ZM79.0143 38.9687L73.3897 38.4429C72.6397 38.3736 71.8881 38.5671 71.267 38.9945C68.0023 41.2364 64.0408 42.5381 59.7743 42.5106C56.8467 42.4913 54.0627 41.8364 51.5528 40.6784C51.719 40.1735 52.2368 38.8365 53.6385 36.5204C55.4758 33.4848 64.6635 25.0978 64.6635 25.0978L79.0804 28.4462C78.8481 29.1866 78.5739 29.9108 78.261 30.6107C77.9319 31.3477 77.8853 32.1801 78.1384 32.9462L79.8014 37.9816C79.9708 38.4977 79.5546 39.0188 79.0143 38.9687ZM62.1197 36.1171C62.1197 35.809 61.8713 35.5606 61.5632 35.5606C61.2567 35.5606 61.0068 35.809 61.0068 36.1171C61.0068 36.4236 61.255 36.6735 61.5632 36.6735C61.8713 36.6735 62.1197 36.4253 62.1197 36.1171ZM22.3655 57.2267C22.0317 57.2267 21.7607 57.4976 21.7607 57.8315C21.7607 58.1653 22.0317 58.4363 22.3655 58.4363C22.6995 58.4363 22.9705 58.1653 22.9705 57.8315C22.9705 57.4976 22.6995 57.2267 22.3655 57.2267ZM25.4706 61.5734C25.1367 61.5734 24.8657 61.8443 24.8657 62.1782C24.8657 62.512 25.1367 62.783 25.4706 62.783C25.8045 62.783 26.0755 62.512 26.0755 62.1782C26.0755 61.8443 25.8045 61.5734 25.4706 61.5734Z" fill="#FBBE63"/>
<path d="M68.383 26.2576L61.1341 33.0397L59.6921 30.03L58.9292 24.9011C58.9292 24.9011 54.1822 28.4623 51.2141 25.4527C48.2463 22.443 48.1205 19.2641 48.543 17.0172C48.9673 14.7705 47.9334 11.0125 48.4156 8.45438C49.1366 4.63998 52.3998 2.22384 55.0709 1.4609C57.742 0.698105 64.4811 -0.192311 67.4072 5.61413C70.3316 11.4206 65.1812 19.2205 65.6474 20.4914C66.1151 21.764 68.383 26.2576 68.383 26.2576ZM21.372 33.1236C20.4816 30.7075 17.8395 27.6479 13.9957 27.3172C10.0535 26.9784 4.96614 28.801 3.52567 35.3703C2.08368 41.9397 6.53562 44.738 8.78249 46.4331C11.0294 48.1283 12.3004 47.959 12.4279 48.8493C12.5554 49.7396 12.8941 54.5299 12.8941 54.5299L20.9059 55.2508L22.093 52.0299L21.4155 49.4445C24.0866 49.4864 25.8658 47.5364 25.8238 46.0106C25.7819 44.4848 25.8238 44.23 25.1028 40.2461C24.3818 36.2622 22.2623 35.5397 21.372 33.1236ZM39.8973 29.564C39.8973 29.564 39.6006 29.0978 39.2619 29.4784C39.2619 29.4784 38.8376 29.1817 38.4989 29.8607C38.4989 29.8607 37.9908 29.564 37.6505 30.1994C37.3118 30.8349 36.4213 32.9123 35.3615 33.9301C34.3018 34.9477 32.4372 36.6009 31.9275 39.6525C31.4193 42.7041 31.7162 45.9686 31.9275 47.8332L33.2469 60.5621C36.1616 58.6815 38.523 56.0846 40.1247 53.0605L38.1586 46.6477C38.1586 46.6477 37.3956 43.7236 37.0987 42.1542C36.802 40.5864 37.3101 39.5687 38.244 37.5768C39.1763 35.5848 40.278 33.0833 40.4054 31.0914C40.5329 29.0978 39.8973 29.564 39.8973 29.564ZM52.8692 31.98C52.8692 31.98 53.7594 30.6656 53.2513 29.7333C52.7434 28.801 51.3012 27.9108 50.4529 28.0381C49.6044 28.1656 47.7816 28.4623 47.7816 28.4623V27.3172C47.7816 27.3172 49.9012 25.1559 49.6463 24.8156C49.3915 24.4769 46.9752 26.2139 46.6364 26.9769C46.2977 27.7398 45.6622 29.9446 46.0429 31.0882C46.4252 32.2333 48.4592 37.5735 48.4592 37.5735L48.1382 38.672C49.8624 39.9267 51.7916 40.9155 53.8627 41.5735C54.1675 39.8575 54.5385 37.4252 54.4353 36.259C54.2676 34.3527 52.8692 31.98 52.8692 31.98ZM29.1821 18.9673C28.1466 18.9673 27.3062 19.8076 27.3062 20.843C27.3062 21.8785 28.1466 22.7189 29.1821 22.7189C30.2177 22.7189 31.0581 21.8785 31.0581 20.843C31.0581 19.8059 30.2194 18.9673 29.1821 18.9673Z" fill="#EF7F59"/>
<path d="M71.7316 1.88519C67.6201 -0.148653 65.7538 2.26749 65.7538 2.26749C65.7538 2.26749 62.2359 -0.572893 56.9791 0.10617C51.7223 0.783561 48.4156 5.23522 48.5011 8.15935C50.027 5.57392 54.6047 4.21747 54.6047 4.21747C54.8127 8.97063 57.0404 11.8594 58.7372 13.3851L58.1388 13.8366C57.784 12.2351 56.3548 11.0335 54.6482 11.0335C52.7627 11.0335 51.2174 12.4996 51.0835 14.3512C50.8997 14.3109 50.7658 14.3205 50.6739 14.3496C50.6673 12.5142 49.6819 11.0238 48.4721 11.0238C47.2575 11.0238 46.2703 12.5238 46.2703 14.369C46.2703 16.2141 47.2575 17.7141 48.4721 17.7141C49.1527 17.7141 49.7626 17.2416 50.1658 16.5029C50.0883 17.2028 50.0061 17.9803 49.9899 18.227C49.9818 18.3447 50.0223 18.4512 50.1077 18.535C50.3125 18.7366 50.7593 18.7705 51.0432 18.7705C51.169 18.7705 51.2625 18.7641 51.29 18.7609C51.3691 18.7543 51.4287 18.6851 51.4223 18.606C51.4158 18.527 51.3465 18.4689 51.2674 18.4737C50.9561 18.4995 50.4544 18.4705 50.3109 18.3286C50.2852 18.3028 50.2754 18.2802 50.2786 18.2464C50.3093 17.7787 50.5932 15.2899 50.5964 15.2641C50.5964 15.2593 50.5947 15.2544 50.5947 15.248C50.6319 15.04 50.656 14.8237 50.6673 14.6028L50.7173 14.6464C50.7173 14.6447 50.8078 14.5721 51.0722 14.6447C51.09 16.6028 52.6868 18.1899 54.6483 18.1899C56.621 18.1899 58.2259 16.5851 58.2259 14.6125C58.2259 14.4576 58.2131 14.3077 58.1937 14.1576L58.9582 13.5786C59.9244 14.4044 60.6664 14.7705 60.6664 14.7705L61.1745 12.0576C61.1745 12.0576 63.0391 10.3207 64.6505 12.0576C66.2619 13.7964 65.286 16.6351 64.7361 17.7383C64.1843 18.8399 64.1618 19.0464 65.6038 20.5721C68.9943 15.698 69.7799 10.4061 69.7799 10.4061C73.4704 10.6158 75.8447 3.91904 71.7316 1.88519ZM48.4721 17.4238C47.4172 17.4238 46.5591 16.0529 46.5591 14.3673C46.5591 12.6819 47.4172 11.311 48.4721 11.311C49.527 11.311 50.385 12.6819 50.385 14.3673C50.385 16.0529 49.527 17.4238 48.4721 17.4238ZM54.6482 17.9011C52.8352 17.9011 51.3593 16.4254 51.3593 14.6125C51.3593 12.7997 52.8352 11.3238 54.6482 11.3238C56.4612 11.3238 57.9372 12.7997 57.9372 14.6125C57.9372 16.4254 56.4629 17.9011 54.6482 17.9011ZM54.1724 15.39C54.1724 15.5916 54.0095 15.7561 53.8063 15.7561C53.6047 15.7561 53.4401 15.5931 53.4401 15.39C53.4401 15.1867 53.603 15.0238 53.8063 15.0238C54.0079 15.0253 54.1724 15.1884 54.1724 15.39ZM49.6898 15.4221C49.6898 15.6237 49.527 15.7883 49.3237 15.7883C49.1205 15.7883 48.9575 15.6254 48.9575 15.4221C48.9575 15.2205 49.1205 15.056 49.3237 15.056C49.527 15.056 49.6898 15.2205 49.6898 15.4221ZM52.9482 19.7447C52.5965 19.7447 52.3111 20.0303 52.3111 20.3818C52.3111 20.7334 52.5965 21.0189 52.9482 21.0189C53.2998 21.0189 53.5853 20.7334 53.5853 20.3818C53.5853 20.0303 53.2998 19.7447 52.9482 19.7447ZM52.9482 20.7302C52.7562 20.7302 52.5997 20.5738 52.5997 20.3818C52.5997 20.1899 52.7562 20.0335 52.9482 20.0335C53.1402 20.0335 53.2966 20.1899 53.2966 20.3818C53.2966 20.5738 53.1402 20.7302 52.9482 20.7302ZM61.3568 23.8302C61.7052 24.2221 60.3067 26.5705 59.3922 28.0092L58.9292 24.9012C60.1179 23.9577 60.8487 23.2592 61.3568 23.8302ZM52.995 31.9091C53.0336 31.9785 53.0095 32.0673 52.9384 32.1059C52.9159 32.1188 52.8918 32.1237 52.8692 32.1237C52.8192 32.1237 52.7691 32.0962 52.7434 32.0494C52.0901 30.8769 51.019 29.5608 51.0094 29.5479C50.9674 29.4963 50.9657 29.4221 51.0062 29.3688C51.1852 29.1366 51.3868 29.0914 51.532 29.0947C52.0707 29.1059 52.5804 29.8027 52.6368 29.8817C52.6836 29.9462 52.6674 30.0366 52.6029 30.0833C52.5384 30.1301 52.4482 30.1139 52.4013 30.0494C52.2707 29.8672 51.8594 29.3897 51.5256 29.3833C51.4545 29.3801 51.3755 29.4076 51.311 29.464C51.5739 29.7946 52.4337 30.9027 52.995 31.9091ZM71.6106 26.9252C72.1559 30.6397 69.4701 33.5027 69.4427 33.5317C69.4154 33.5607 69.3766 33.5768 69.3379 33.5768C69.3202 33.5768 69.3024 33.5736 69.2862 33.5672L64.2312 31.6285C64.1569 31.5994 64.1198 31.5172 64.1473 31.4414C64.1763 31.3672 64.2601 31.3301 64.3344 31.3575L69.296 33.2607C69.6943 32.8075 71.801 30.2221 71.3236 26.9672C71.3123 26.8882 71.367 26.8156 71.4462 26.8028C71.5235 26.7915 71.5993 26.8462 71.6106 26.9252ZM59.9727 31.4946C60.0244 31.5559 60.0163 31.6462 59.955 31.6979L57.2839 33.9543C57.2582 33.9768 57.2243 33.9881 57.1903 33.9881C57.1726 33.9881 57.1549 33.9849 57.1388 33.9785C57.0904 33.9591 57.0549 33.9155 57.0485 33.8623L56.921 32.9092C56.9097 32.8301 56.9661 32.7575 57.0451 32.7462C57.1226 32.7349 57.1969 32.7913 57.2065 32.8705L57.2984 33.5623L59.7679 31.4753C59.8309 31.4253 59.9212 31.4333 59.9727 31.4946ZM52.8401 10.8077C52.7998 10.7399 52.8207 10.6513 52.8901 10.6093C52.9078 10.5981 54.7467 9.52388 56.458 10.94C56.5193 10.9915 56.5274 11.0819 56.4774 11.1432C56.4484 11.1771 56.408 11.1948 56.3661 11.1948C56.3339 11.1948 56.3016 11.1835 56.2741 11.1609C54.7225 9.87706 53.1062 10.8158 53.0385 10.8561C52.9691 10.898 52.8805 10.8755 52.8401 10.8077ZM48.3995 10.9174C48.3495 10.8544 48.3608 10.7641 48.4221 10.7141C48.4334 10.7045 49.6238 9.78358 50.6238 10.9561C50.6754 11.0174 50.669 11.1077 50.6077 11.1593C50.5802 11.1818 50.5481 11.1931 50.5142 11.1931C50.4738 11.1931 50.4335 11.1754 50.4044 11.1432C49.5867 10.1836 48.6414 10.9093 48.6012 10.94C48.5398 10.9915 48.4494 10.9802 48.3995 10.9174ZM63.1843 12.3625C63.1972 12.4416 63.144 12.5157 63.0649 12.5287C62.7939 12.5738 62.5423 12.8497 62.4084 13.2463C62.2585 13.6931 62.3004 14.1608 62.5101 14.385C63.0778 14.9883 62.8343 15.5673 62.823 15.5916C62.7988 15.6463 62.7455 15.6786 62.6907 15.6786C62.6713 15.6786 62.6519 15.6754 62.6327 15.6657C62.5601 15.6335 62.5261 15.5496 62.5584 15.477C62.5665 15.456 62.7311 15.0415 62.3004 14.5834C61.9713 14.2334 61.9794 13.6141 62.1342 13.1545C62.3051 12.6481 62.6359 12.3077 63.0165 12.2447C63.0955 12.2302 63.1713 12.2835 63.1843 12.3625ZM38.515 30.0107C38.5069 30.0962 38.315 32.1188 37.6746 33.4608C37.6505 33.5123 37.5988 33.543 37.544 33.543C37.523 33.543 37.5021 33.5381 37.4827 33.5285C37.4101 33.4946 37.3795 33.4075 37.4149 33.3365C38.0328 32.0398 38.2263 30.0043 38.2278 29.9834C38.2359 29.9043 38.307 29.8446 38.3843 29.8527C38.4634 29.8623 38.5215 29.9317 38.515 30.0107ZM39.4054 29.4849C39.4022 29.5801 39.3038 31.8495 38.8909 33.2188C38.8715 33.2817 38.8151 33.322 38.7521 33.322C38.7376 33.322 38.7246 33.3205 38.7102 33.3156C38.6344 33.293 38.5908 33.2124 38.6133 33.1349C39.0167 31.801 39.115 29.4963 39.1167 29.4721C39.1199 29.3931 39.1812 29.3269 39.2666 29.3333C39.3473 29.3382 39.4086 29.4059 39.4054 29.4849ZM40.0103 29.7382C40.0135 29.8333 40.1021 32.0994 39.7166 33.2236C39.6957 33.2833 39.6408 33.3205 39.5795 33.3205C39.5635 33.3205 39.5489 33.3171 39.5329 33.3124C39.4569 33.2865 39.4167 33.2043 39.4424 33.1285C39.8103 32.0543 39.7215 29.7705 39.7215 29.7478C39.7183 29.6688 39.7796 29.6011 39.8603 29.5979C39.9377 29.5947 40.007 29.6575 40.0103 29.7382ZM26.0352 46.0849C26.2272 44.5848 26.098 43.5091 25.1222 40.3574C24.5545 40.2735 23.5559 40.2075 22.4221 40.5058C22.6446 40.1881 22.9286 39.6155 22.5173 39.1527C22.0092 38.5801 19.4654 36.3414 19.3573 36.2463C19.3396 36.2316 19.3202 36.222 19.2993 36.2171C19.3573 36.1946 19.4186 36.1737 19.4848 36.1607C19.7381 36.4817 20.8333 37.7188 22.3302 37.1898C22.7157 37.0542 22.9963 36.8011 23.164 36.4366C23.6366 35.4107 23.0463 33.8559 23.0221 33.7914C23.0044 33.7446 22.9624 33.7092 22.9124 33.7011C22.8866 33.6979 20.401 33.3026 19.4654 35.8704C19.0009 35.9478 18.688 36.2542 18.5686 36.3913C14.7054 35.8446 13.5634 38.8752 13.4199 39.3139L11.6859 40.493C11.6326 40.2623 11.5826 40.0268 11.5392 39.7865C11.1262 37.4655 10.5859 36.4479 10.5859 36.4479L11.4762 36.7027C15.291 33.3639 16.4362 27.9915 16.4362 27.9915C18.9154 28.8173 20.951 32.093 20.951 32.093C21.3333 29.3914 18.5347 26.085 12.4941 25.9253C6.45329 25.7657 1.78052 29.4221 1.78052 33.6188C1.78052 34.9978 2.35314 37.0203 2.35314 37.0203C2.35314 37.0203 1.87568 38.2914 1.94018 39.6591C2.05791 42.1833 4.10151 45.8897 6.96307 46.6848C9.8245 47.4799 12.3359 48.4961 12.3359 48.4961L12.1763 47.2251C9.72767 47.5751 8.2018 45.8574 8.2018 44.1735C8.2018 42.4881 9.05989 42.7106 9.05989 42.7106C9.05989 42.7106 12.2069 44.7768 12.5892 44.4268C12.9134 44.1284 12.2263 42.6558 11.7584 40.7929L13.5263 39.5897C13.941 39.98 15.7506 41.4946 17.7733 40.4543C19.8639 39.3801 19.0041 37.0478 18.7976 36.5671C18.8606 36.4994 18.9767 36.3866 19.1348 36.2946C19.109 36.351 19.1203 36.4187 19.1686 36.4607C19.1944 36.4833 21.8059 38.7817 22.3043 39.3413C22.7172 39.8058 22.0285 40.5365 22.022 40.5445C21.9962 40.5703 21.9849 40.6042 21.9833 40.6382C21.593 40.7719 21.1913 40.9477 20.7897 41.1849C18.3734 42.6154 16.8798 44.7461 17.5476 48.8461C17.5476 48.8461 18.83 49.2702 21.4155 49.4396C24.0851 49.4865 25.8449 47.5784 26.0352 46.0849ZM22.7817 33.9768C22.8915 34.2995 23.2689 35.5268 22.9028 36.3187C22.7672 36.6123 22.5495 36.8091 22.2365 36.9205C20.9187 37.385 19.9654 36.3074 19.7268 36.0011C20.488 33.8591 22.3608 33.9302 22.7817 33.9768ZM18.8573 38.0251C18.9138 39.0235 18.5041 39.7558 17.6396 40.201C15.7459 41.1753 14.0361 39.6832 13.7038 39.3671C13.8699 38.8575 14.9297 36.1671 18.5283 36.6801C18.6105 36.8656 18.8219 37.4059 18.8573 38.0251ZM23.7867 43.0122C23.7077 43.0365 21.8189 43.5897 20.5768 43.6849C20.3913 43.6994 20.3041 43.7494 20.2864 43.7897C20.2687 43.8284 20.2977 43.9026 20.3607 43.9832C20.6945 44.4074 21.851 44.9187 23.2737 44.6703C23.3528 44.6558 23.4269 44.7091 23.4414 44.788C23.456 44.867 23.4028 44.9413 23.3237 44.9558C23.0446 45.0041 22.7753 45.0267 22.5205 45.0267C21.3478 45.0267 20.451 44.5688 20.1332 44.1622C19.9509 43.93 19.9848 43.7558 20.0219 43.6736C20.0703 43.5623 20.2026 43.4252 20.5542 43.3977C21.7656 43.3043 23.6851 42.7412 23.7045 42.7348C23.7803 42.7123 23.8609 42.7559 23.8835 42.8332C23.9076 42.909 23.8641 42.9897 23.7867 43.0122ZM17.1023 38.3268C17.1023 38.5558 16.9169 38.7397 16.6894 38.7397C16.4603 38.7397 16.2766 38.5543 16.2766 38.3268C16.2766 38.0977 16.462 37.914 16.6894 37.914C16.9169 37.914 17.1023 38.0994 17.1023 38.3268ZM21.235 35.6881C21.235 35.4591 21.4204 35.2752 21.6478 35.2752C21.8768 35.2752 22.0607 35.4608 22.0607 35.6881C22.0607 35.9172 21.8753 36.1011 21.6478 36.1011C21.4204 36.1026 21.235 35.9172 21.235 35.6881ZM15.7459 34.7898C15.7685 34.8656 15.7248 34.9462 15.6491 34.9688C13.7279 35.5398 13.3796 37.293 13.365 37.3688C13.3522 37.4382 13.2909 37.4865 13.2232 37.4865C13.2151 37.4865 13.2053 37.4849 13.1972 37.4833C13.1182 37.4688 13.0667 37.3929 13.0812 37.3156C13.0844 37.2962 13.4716 35.3139 15.5669 34.6914C15.6426 34.6688 15.7233 34.7123 15.7459 34.7898ZM20.2962 32.0172C20.3735 32.0075 20.4461 32.0656 20.4559 32.1446C20.4655 32.2237 20.4074 32.2946 20.3284 32.3042C18.4977 32.5107 18.2701 33.9623 18.2621 34.0253C18.2525 34.0978 18.1895 34.1494 18.1186 34.1494C18.1122 34.1494 18.1056 34.1494 18.0977 34.1478C18.0185 34.1365 17.9638 34.0639 17.9751 33.9849C17.9783 33.9672 18.238 32.2495 20.2962 32.0172ZM17.9089 55.6606L16.8911 59.2847C16.8733 59.3476 16.8153 59.3896 16.7524 59.3896C16.7459 59.3896 16.7411 59.3896 16.7347 59.3879C13.0699 58.9412 11.1956 57.0735 11.1166 56.9928C11.06 56.9364 11.0617 56.8444 11.1181 56.7895C11.1745 56.7331 11.2665 56.7348 11.3229 56.7912C11.3408 56.8106 13.1683 58.6251 16.6474 59.0864L17.6315 55.5816C17.6524 55.5041 17.7331 55.4605 17.8088 55.4815C17.8846 55.5041 17.9298 55.5831 17.9089 55.6606ZM26.3013 54.3105C26.3143 54.3605 26.3013 54.4122 26.2658 54.4493C26.2385 54.4783 26.2013 54.4928 26.1627 54.4928C26.1513 54.4928 26.14 54.4912 26.1287 54.488L22.2189 53.5348C22.1414 53.5154 22.0946 53.4379 22.1124 53.3606C22.1301 53.2832 22.2091 53.2348 22.2866 53.2542L25.9368 54.1445C25.7642 53.717 25.3029 52.7783 24.2818 51.7815C24.2254 51.7251 24.2239 51.6348 24.2803 51.5767C24.3367 51.5203 24.427 51.5186 24.4851 51.5751C25.9256 52.9864 26.2868 54.2573 26.3013 54.3105ZM34.4647 17.8819C34.1679 17.7819 33.8454 17.7061 33.505 17.6496C33.6502 16.1802 33.3792 14.9883 32.4566 14.5448C31.8129 14.2351 31.0064 14.4125 30.1242 15.0545C29.6467 15.4012 29.1499 15.8802 28.6595 16.4593C27.8353 15.8673 27.0514 15.4673 26.3611 15.298C25.469 15.0786 24.7658 15.2463 24.269 15.798C23.5447 16.6012 23.5495 17.8721 24.2835 19.4738C24.2867 19.4819 24.2916 19.4898 24.2948 19.4979C24.027 19.648 23.777 19.8044 23.5527 19.9624C23.4882 20.0092 23.4721 20.098 23.5189 20.164C23.5657 20.2285 23.6544 20.2447 23.7205 20.198C23.9318 20.048 24.1673 19.9011 24.4206 19.7593C24.7318 20.3818 25.1465 21.0383 25.6352 21.6931C25.3351 22.485 25.1207 23.2382 24.9964 23.9237C24.4319 23.8479 23.927 23.7254 23.5108 23.5511C22.8575 23.2769 22.4737 22.8948 22.3688 22.4141C22.3091 22.1414 22.3398 21.8608 22.4607 21.5769C22.4914 21.5028 22.4575 21.4189 22.3849 21.3883C22.3123 21.3576 22.2269 21.3915 22.1963 21.464C22.0526 21.8027 22.0156 22.1431 22.0882 22.4754C22.214 23.0527 22.6559 23.5044 23.4012 23.8172C23.835 23.9996 24.3642 24.1254 24.9528 24.2044C24.8657 24.7962 24.8497 25.335 24.9125 25.7978C25.0367 26.7076 25.4513 27.3011 26.1465 27.5608C26.3739 27.6462 26.6094 27.6882 26.8514 27.6882C27.6901 27.6882 28.6128 27.1834 29.5612 26.1963C29.6855 26.0673 29.8079 25.9302 29.9305 25.7866C30.9742 26.4607 31.9985 26.8899 32.8388 26.8899C33.313 26.8899 33.7292 26.7543 34.0583 26.4495C34.5826 25.9656 34.7148 25.1511 34.4406 24.0931C34.3261 23.6528 34.1422 23.1737 33.9018 22.6704C34.1599 22.5414 34.4067 22.406 34.6324 22.264C34.7003 22.2221 34.7212 22.1318 34.6777 22.0656C34.6358 21.9979 34.547 21.9786 34.4793 22.0205C34.2599 22.1576 34.0228 22.2883 33.7743 22.4141C33.497 21.8721 33.1566 21.3076 32.7615 20.7366C33.105 19.7819 33.3582 18.819 33.4744 17.9399C33.7954 17.9915 34.0985 18.0641 34.3761 18.1576C35.2293 18.4448 35.7617 18.9076 35.9584 19.5334C36.0923 19.9609 36.0342 20.3899 35.7826 20.8092C35.7423 20.8769 35.7632 20.9657 35.8326 21.0076C35.8551 21.0221 35.8809 21.0285 35.9068 21.0285C35.9552 21.0285 36.0035 21.0027 36.031 20.9593C36.3262 20.4673 36.3956 19.9577 36.2342 19.4479C36.0052 18.7254 35.41 18.1996 34.4647 17.8819ZM30.2935 15.2882C30.8484 14.885 31.3452 14.6834 31.7823 14.6834C31.9775 14.6834 32.1614 14.7239 32.3308 14.8061C33.1259 15.1884 33.3501 16.2706 33.2179 17.6077C32.2727 17.4883 31.2016 17.519 30.108 17.6641C29.7 17.2802 29.2919 16.9351 28.8934 16.6334C29.3532 16.0916 29.8258 15.6286 30.2935 15.2882ZM32.4324 20.7818C32.3323 21.0528 32.2259 21.3221 32.1131 21.5866C31.8549 22.1931 31.5613 22.7898 31.2452 23.3544C30.2096 23.6382 29.1112 23.8383 28.0483 23.9398C27.9063 23.8093 27.7676 23.6754 27.6305 23.5415C27.0304 22.9495 26.4675 22.3124 25.9722 21.6641C26.3852 20.598 26.9288 19.5045 27.5449 18.5061C28.345 18.2786 29.1806 18.0963 30.0016 17.9803C30.8823 18.8156 31.7275 19.7883 32.4324 20.7818ZM31.0468 23.6995C30.6807 24.3205 30.2839 24.8963 29.8741 25.4012C29.3515 25.0479 28.8272 24.635 28.3272 24.1931C29.2338 24.0931 30.1596 23.927 31.0468 23.6995ZM27.7852 18.1286C28.0789 17.6786 28.3853 17.2544 28.6982 16.8657C29.0386 17.1238 29.3805 17.4093 29.7209 17.7174C29.0725 17.8189 28.4208 17.9592 27.7852 18.1286ZM24.4834 15.9899C24.7818 15.6593 25.1739 15.4947 25.6561 15.4947C25.853 15.4947 26.0659 15.5222 26.2917 15.5786C26.945 15.7383 27.6934 16.1383 28.466 16.6947C28.0886 17.1609 27.7175 17.6835 27.3611 18.2479C26.3288 18.5512 25.361 18.9334 24.5481 19.3608C23.9206 17.9947 23.7899 16.7592 24.4834 15.9899ZM24.6739 19.6222C25.3868 19.248 26.2272 18.9093 27.1272 18.6302C26.8626 19.0738 26.6078 19.5383 26.369 20.0205C26.1416 20.4818 25.9384 20.935 25.761 21.3786C25.3304 20.7915 24.9609 20.198 24.6739 19.6222ZM25.8545 21.9802C26.3256 22.585 26.8562 23.1834 27.4272 23.7463C27.5046 23.8221 27.5836 23.8979 27.6628 23.9721C26.8224 24.0334 26.0175 24.0301 25.2948 23.9577C25.4126 23.3382 25.6046 22.6672 25.8545 21.9802ZM26.2449 27.2882C25.6578 27.0689 25.3061 26.5544 25.1965 25.7576C25.1367 25.3188 25.1577 24.8028 25.2465 24.2398C25.6399 24.2802 26.0578 24.2996 26.4916 24.2996C26.9578 24.2996 27.445 24.2753 27.9402 24.2318C28.5062 24.7496 29.0982 25.2237 29.6887 25.6254C28.5531 26.9414 27.3192 27.6899 26.2449 27.2882ZM34.1566 24.164C34.4051 25.1253 34.305 25.8221 33.8582 26.2366C33.0663 26.9705 31.6146 26.5252 30.1145 25.5592C30.5742 24.9899 31.0242 24.3221 31.4387 23.5947C32.2276 23.3738 32.9743 23.1044 33.6389 22.793C33.868 23.2705 34.0453 23.7318 34.1566 24.164ZM33.5131 22.5382C32.9405 22.806 32.3049 23.0431 31.6339 23.2431C31.9017 22.7479 32.1516 22.2302 32.3792 21.6995C32.4679 21.4915 32.5533 21.2801 32.634 21.0689C32.9679 21.5624 33.2647 22.056 33.5131 22.5382ZM32.5533 20.4448C32.1469 19.8834 31.6935 19.3206 31.1984 18.7737C30.9291 18.4754 30.6581 18.1963 30.3871 17.9302C31.3774 17.8125 32.3388 17.7931 33.184 17.8964C33.0776 18.6996 32.8517 19.577 32.5533 20.4448ZM54.4272 37.1834C54.774 38.701 55.7257 40.7252 56.4984 42.2188C55.5984 42.0623 54.7208 41.8461 53.8644 41.5736C54.3112 39.9108 54.4272 37.1834 54.4272 37.1834Z" fill="black"/>
</svg>
