<svg width="48" height="48" viewBox="0 0 48 48" fill="none" xmlns="http://www.w3.org/2000/svg">
<path d="M13.2323 44.8059L17.1722 40.9789C17.1722 40.9789 24.8812 40.153 28.5457 37.9036C32.2103 35.6542 31.734 34.7759 31.734 34.7759C34.7047 33.3745 33.7218 30.569 33.7218 30.569C36.6347 28.4132 34.9084 27.4166 34.9084 27.4166C37.8214 23.9392 34.6937 22.5378 34.0467 21.4228C33.3997 20.3077 27.5766 20.974 25.9329 21.4228C24.2893 21.8716 13.8793 24.2091 12.5853 24.9634C11.2913 25.7178 3.56848 34.0215 3.56848 34.0215L13.2323 44.8059Z" fill="#FFC9B0"/>
<path d="M13.2322 45.0814C13.195 45.0798 13.1585 45.0707 13.1249 45.0546C13.0913 45.0385 13.0613 45.0158 13.0367 44.9878L3.36467 34.2116C3.31823 34.1609 3.29248 34.0946 3.29248 34.0258C3.29248 33.957 3.31823 33.8907 3.36467 33.84C3.68129 33.4986 11.1315 25.4977 12.4503 24.7295C13.3616 24.1982 18.188 23.017 23.053 21.8524C24.3828 21.533 25.4318 21.2825 25.8613 21.1641C27.0782 20.831 33.4767 19.8921 34.2861 21.2908C34.4683 21.5502 34.6778 21.7892 34.9111 22.0038C35.9463 23.0391 37.4964 24.5891 35.2966 27.3836C35.5303 27.6145 35.6714 27.9231 35.693 28.2509C35.7343 28.9888 35.1782 29.8065 34.0411 30.6848C34.2035 31.3676 34.5257 33.6527 32.034 34.9412C32.0092 35.4203 31.4834 36.4142 28.6943 38.1432C25.195 40.3045 18.2321 41.1443 17.2987 41.2489L13.4277 45.007C13.3749 45.0566 13.3046 45.0833 13.2322 45.0814ZM3.94284 34.0244L13.2542 44.3986L16.9876 40.7726C17.032 40.7304 17.0892 40.7043 17.1501 40.6982C17.2272 40.6982 24.8398 39.8723 28.4108 37.6697C31.4944 35.7645 31.4916 34.944 31.4861 34.8779C31.4605 34.813 31.4605 34.7409 31.486 34.676C31.5116 34.611 31.5608 34.5583 31.6238 34.5283C34.3274 33.2508 33.507 30.7646 33.4712 30.66C33.4521 30.6046 33.4511 30.5446 33.4684 30.4886C33.4858 30.4327 33.5205 30.3837 33.5675 30.3489C34.9084 29.355 35.1672 28.6777 35.1479 28.2839C35.1386 28.1574 35.1002 28.0346 35.0357 27.9253C34.9712 27.8159 34.8824 27.7229 34.7762 27.6535C34.7422 27.633 34.7131 27.6054 34.6907 27.5726C34.6684 27.5398 34.6534 27.5026 34.6468 27.4635C34.6398 27.4243 34.6413 27.3841 34.6513 27.3456C34.6612 27.3071 34.6795 27.2713 34.7046 27.2405C36.8356 24.6965 35.5554 23.4162 34.5284 22.3865C34.2578 22.1414 34.0183 21.864 33.8153 21.5606C33.3363 20.7346 28.0336 21.1311 26.0127 21.6872C25.5749 21.8084 24.5204 22.0589 23.1879 22.3783C19.6087 23.2345 13.6507 24.6635 12.7256 25.1976C11.751 25.7703 6.64651 31.1143 3.94284 34.0244Z" fill="#093F68"/>
<path d="M38.9997 26.9431C39.3603 27.216 39.787 27.388 40.2359 27.4414C40.4606 27.4657 40.6877 27.4328 40.8962 27.3457C41.1046 27.2585 41.2876 27.12 41.4281 26.9431C41.6332 26.5914 41.72 26.1832 41.6759 25.7785C41.6204 24.1816 41.103 22.6352 40.1864 21.3265C39.176 19.8948 35.9905 19.2313 36.0566 21.6982C36.0758 23.4575 37.5956 25.9712 38.9997 26.9431Z" fill="#FFC9B0"/>
<path d="M40.3571 27.7222H40.2166C39.716 27.668 39.2399 27.4775 38.84 27.1715C37.4194 26.1886 35.8115 23.6419 35.7647 21.7064C35.7371 20.4537 36.4667 20.0269 36.9045 19.881C38.0058 19.5203 39.677 20.1343 40.4066 21.1723C41.3543 22.5236 41.8899 24.1207 41.9484 25.7701C41.9981 26.2358 41.8937 26.7049 41.6511 27.1055C41.4991 27.3028 41.3027 27.4615 41.0779 27.5687C40.853 27.6758 40.6061 27.7284 40.3571 27.7222ZM37.6038 20.3243C37.4247 20.322 37.2463 20.348 37.0752 20.4014C36.5576 20.5721 36.3016 21.0071 36.3153 21.6926C36.3484 23.4409 37.8681 25.8225 39.1511 26.7173C39.4715 26.9627 39.8518 27.1177 40.2524 27.166C40.4297 27.1864 40.6093 27.1621 40.7747 27.0952C40.9401 27.0284 41.0862 26.9211 41.1995 26.7833C41.3667 26.4795 41.435 26.1311 41.395 25.7867C41.3424 24.2447 40.8442 22.7509 39.9606 21.4861C39.6751 21.1343 39.3169 20.8483 38.9106 20.6478C38.5043 20.4472 38.0595 20.3369 37.6066 20.3243H37.6038Z" fill="#093F68"/>
<path d="M45.5551 0.275269H15.6606C14.4624 0.275269 13.4911 1.24661 13.4911 2.44481V20.5996C13.4911 21.7978 14.4624 22.7691 15.6606 22.7691H45.5551C46.7534 22.7691 47.7247 21.7978 47.7247 20.5996V2.44481C47.7247 1.24661 46.7534 0.275269 45.5551 0.275269Z" fill="#68E1FD"/>
<path d="M45.5551 23.0417H15.6633C15.0146 23.0417 14.3925 22.7842 13.9336 22.3258C13.4746 21.8674 13.2164 21.2455 13.2157 20.5969V2.44487C13.2164 1.79619 13.4746 1.17434 13.9336 0.715918C14.3925 0.257496 15.0146 -4.10385e-07 15.6633 0H45.5551C46.2033 0.000728719 46.8247 0.258547 47.2831 0.71689C47.7414 1.17523 47.9992 1.79667 47.9999 2.44487V20.5969C47.9992 21.2451 47.7414 21.8665 47.2831 22.3249C46.8247 22.7832 46.2033 23.041 45.5551 23.0417ZM15.6633 0.550645C15.1607 0.550644 14.6786 0.750125 14.3229 1.10528C13.9673 1.46044 13.7671 1.94223 13.7663 2.44487V20.5969C13.7671 21.0995 13.9673 21.5813 14.3229 21.9365C14.6786 22.2916 15.1607 22.4911 15.6633 22.4911H45.5551C46.0572 22.4904 46.5386 22.2906 46.8937 21.9355C47.2488 21.5804 47.4486 21.099 47.4493 20.5969V2.44487C47.4486 1.94271 47.2488 1.46133 46.8937 1.10625C46.5386 0.751176 46.0572 0.551373 45.5551 0.550645H15.6633Z" fill="#093F68"/>
<path d="M47.7247 4.80713H13.4911V9.41878H47.7247V4.80713Z" fill="white"/>
<path d="M47.7246 9.70792H13.491C13.418 9.70792 13.348 9.67892 13.2963 9.62728C13.2447 9.57565 13.2157 9.50562 13.2157 9.4326V4.80718C13.2157 4.73416 13.2447 4.66413 13.2963 4.6125C13.348 4.56087 13.418 4.53186 13.491 4.53186H47.7246C47.7976 4.53186 47.8677 4.56087 47.9193 4.6125C47.9709 4.66413 47.9999 4.73416 47.9999 4.80718V9.4326C47.9999 9.50562 47.9709 9.57565 47.9193 9.62728C47.8677 9.67892 47.7976 9.70792 47.7246 9.70792ZM13.7663 9.15728H47.4493V5.08251H13.7663V9.15728Z" fill="#093F68"/>
<path d="M37.4084 20.3353C36.7587 20.3353 36.1237 20.1427 35.5836 19.7818C35.0434 19.4208 34.6224 18.9079 34.3738 18.3077C34.1252 17.7075 34.0602 17.0471 34.1869 16.4099C34.3136 15.7728 34.6265 15.1875 35.0858 14.7282C35.5452 14.2688 36.1304 13.956 36.7676 13.8292C37.4047 13.7025 38.0652 13.7675 38.6653 14.0161C39.2655 14.2647 39.7785 14.6857 40.1394 15.2259C40.5003 15.766 40.693 16.4011 40.693 17.0507C40.6922 17.9216 40.346 18.7566 39.7301 19.3725C39.1143 19.9883 38.2793 20.3346 37.4084 20.3353ZM37.4084 14.3168C36.8677 14.3168 36.3391 14.4771 35.8895 14.7775C35.4399 15.0779 35.0895 15.5049 34.8825 16.0045C34.6756 16.504 34.6215 17.0537 34.727 17.5841C34.8324 18.1144 35.0928 18.6016 35.4752 18.9839C35.8575 19.3663 36.3447 19.6266 36.875 19.7321C37.4053 19.8376 37.9551 19.7835 38.4546 19.5766C38.9542 19.3696 39.3812 19.0192 39.6816 18.5696C39.982 18.12 40.1423 17.5914 40.1423 17.0507C40.1409 16.3261 39.8524 15.6315 39.34 15.1191C38.8276 14.6067 38.133 14.3182 37.4084 14.3168Z" fill="#093F68"/>
<path d="M42.1109 20.3353C41.4613 20.3353 40.8262 20.1427 40.2861 19.7818C39.7459 19.4208 39.3249 18.9079 39.0763 18.3077C38.8277 17.7075 38.7627 17.0471 38.8894 16.4099C39.0161 15.7728 39.329 15.1875 39.7883 14.7282C40.2477 14.2688 40.8329 13.956 41.4701 13.8292C42.1072 13.7025 42.7677 13.7675 43.3679 14.0161C43.968 14.2647 44.481 14.6857 44.8419 15.2259C45.2028 15.766 45.3955 16.4011 45.3955 17.0507C45.3948 17.9216 45.0485 18.7566 44.4326 19.3725C43.8168 19.9883 42.9818 20.3346 42.1109 20.3353ZM42.1109 14.3168C41.5702 14.3168 41.0416 14.4771 40.592 14.7775C40.1424 15.0779 39.792 15.5049 39.585 16.0045C39.3781 16.504 39.324 17.0537 39.4295 17.5841C39.535 18.1144 39.7953 18.6016 40.1777 18.9839C40.56 19.3663 41.0472 19.6266 41.5775 19.7321C42.1079 19.8376 42.6576 19.7835 43.1571 19.5766C43.6567 19.3696 44.0837 19.0192 44.3841 18.5696C44.6845 18.12 44.8448 17.5914 44.8448 17.0507C44.8441 16.3258 44.5558 15.6309 44.0433 15.1183C43.5307 14.6058 42.8358 14.3175 42.1109 14.3168Z" fill="#093F68"/>
<path d="M19.6335 11.7976H16.0378C15.9648 11.7976 15.8947 11.7686 15.8431 11.717C15.7915 11.6653 15.7625 11.5953 15.7625 11.5223C15.7625 11.4493 15.7915 11.3792 15.8431 11.3276C15.8947 11.276 15.9648 11.2469 16.0378 11.2469H19.6335C19.7065 11.2469 19.7765 11.276 19.8282 11.3276C19.8798 11.3792 19.9088 11.4493 19.9088 11.5223C19.9088 11.5953 19.8798 11.6653 19.8282 11.717C19.7765 11.7686 19.7065 11.7976 19.6335 11.7976Z" fill="#093F68"/>
<path d="M24.8427 11.7976H21.2387C21.1657 11.7976 21.0957 11.7686 21.044 11.717C20.9924 11.6653 20.9634 11.5953 20.9634 11.5223C20.9634 11.4493 20.9924 11.3792 21.044 11.3276C21.0957 11.276 21.1657 11.2469 21.2387 11.2469H24.8344C24.9074 11.2469 24.9775 11.276 25.0291 11.3276C25.0807 11.3792 25.1097 11.4493 25.1097 11.5223C25.1097 11.5953 25.0807 11.6653 25.0291 11.717C24.9775 11.7686 24.9074 11.7976 24.8344 11.7976H24.8427Z" fill="#093F68"/>
<path d="M30.049 11.7976H26.4698C26.3968 11.7976 26.3267 11.7686 26.2751 11.717C26.2235 11.6653 26.1945 11.5953 26.1945 11.5223C26.1945 11.4493 26.2235 11.3792 26.2751 11.3276C26.3267 11.276 26.3968 11.2469 26.4698 11.2469H30.049C30.122 11.2469 30.192 11.276 30.2437 11.3276C30.2953 11.3792 30.3243 11.4493 30.3243 11.5223C30.3243 11.5953 30.2953 11.6653 30.2437 11.717C30.192 11.7686 30.122 11.7976 30.049 11.7976Z" fill="#093F68"/>
<path d="M35.2608 11.7976H31.6651C31.5921 11.7976 31.522 11.7686 31.4704 11.717C31.4188 11.6653 31.3898 11.5953 31.3898 11.5223C31.3898 11.4493 31.4188 11.3792 31.4704 11.3276C31.522 11.276 31.5921 11.2469 31.6651 11.2469H35.2608C35.3338 11.2469 35.4039 11.276 35.4555 11.3276C35.5071 11.3792 35.5361 11.4493 35.5361 11.5223C35.5361 11.5953 35.5071 11.6653 35.4555 11.717C35.4039 11.7686 35.3338 11.7976 35.2608 11.7976Z" fill="#093F68"/>
<path d="M8.4967 28.9611C8.4967 28.9611 9.97518 24.5284 11.6051 22.0312C13.235 19.5341 18.1798 15.6685 19.9391 15.1482C21.6984 14.6278 29.9361 12.3454 31.2273 13.6394C32.5186 14.9334 31.1255 17.739 28.7494 18.8155C26.3734 19.892 22.6923 20.6491 22.6923 20.6491C22.6923 20.6491 24.4929 25.1782 19.9887 28.9529" fill="#FFC9B0"/>
<path d="M8.49401 29.2365C8.46505 29.2359 8.43631 29.2313 8.40865 29.2227C8.37425 29.2112 8.34246 29.193 8.31511 29.1692C8.28776 29.1454 8.26538 29.1164 8.24926 29.0839C8.23314 29.0514 8.2236 29.0161 8.22119 28.9799C8.21878 28.9437 8.22354 28.9074 8.2352 28.8731C8.29577 28.6913 9.74397 24.3798 11.3739 21.8826C13.0038 19.3854 17.9816 15.4373 19.8621 14.8867C21.5388 14.3911 29.9747 11.9958 31.4256 13.444C31.6704 13.7046 31.8468 14.0218 31.939 14.3672C32.0313 14.7127 32.0365 15.0756 31.9542 15.4236C31.7009 16.8662 30.4345 18.3585 28.8761 19.0688C26.869 19.9829 23.9919 20.6547 23.0613 20.8584C23.3724 21.9597 24.1048 25.8775 20.1787 29.1677C20.1225 29.2144 20.05 29.2369 19.9772 29.2302C19.9044 29.2234 19.8372 29.1881 19.7905 29.1319C19.7438 29.0756 19.7213 29.0031 19.728 28.9303C19.7347 28.8575 19.7701 28.7904 19.8263 28.7437C21.6351 27.2294 22.6263 25.4205 22.7695 23.3694C22.8426 22.4848 22.7339 21.5947 22.4501 20.7538C22.4352 20.7164 22.4287 20.6761 22.431 20.6359C22.4334 20.5956 22.4445 20.5564 22.4637 20.521C22.4829 20.4855 22.5096 20.4547 22.542 20.4307C22.5743 20.4067 22.6116 20.3901 22.6511 20.3821C22.6869 20.3821 26.3321 19.6222 28.6476 18.5677C30.0518 17.9317 31.1916 16.5992 31.4201 15.3299C31.4831 15.0693 31.4816 14.7972 31.4159 14.5372C31.3502 14.2772 31.2222 14.0371 31.0429 13.8377C30.0903 12.8906 23.9258 14.2617 20.0162 15.4153C18.3946 15.8944 13.4884 19.6498 11.8364 22.1855C10.2451 24.6248 8.77208 29.008 8.75556 29.052C8.73662 29.1062 8.70124 29.1531 8.65434 29.1862C8.60744 29.2192 8.55139 29.2368 8.49401 29.2365Z" fill="#093F68"/>
<path d="M36.1391 22.6233H28.1547C26.9276 22.6233 25.9329 23.618 25.9329 24.8451V25.1397C25.9329 26.3668 26.9276 27.3616 28.1547 27.3616H36.1391C37.3662 27.3616 38.3609 26.3668 38.3609 25.1397V24.8451C38.3609 23.618 37.3662 22.6233 36.1391 22.6233Z" fill="#FFC9B0"/>
<path d="M36.1391 27.6368H28.1548C27.4927 27.6361 26.858 27.3728 26.3898 26.9046C25.9216 26.4365 25.6583 25.8017 25.6576 25.1397V24.8506C25.6583 24.1885 25.9216 23.5538 26.3898 23.0856C26.858 22.6175 27.4927 22.3541 28.1548 22.3534H36.1391C36.8009 22.3541 37.4354 22.6175 37.9031 23.0858C38.3708 23.554 38.6335 24.1888 38.6335 24.8506V25.1452C38.6321 25.806 38.3687 26.4394 37.9012 26.9064C37.4336 27.3734 36.8 27.6361 36.1391 27.6368ZM28.1548 22.8985C27.6387 22.8993 27.1441 23.1046 26.7792 23.4695C26.4143 23.8344 26.209 24.329 26.2082 24.8451V25.1397C26.209 25.6557 26.4143 26.1504 26.7792 26.5153C27.1441 26.8801 27.6387 27.0855 28.1548 27.0862H36.1391C36.6549 27.0855 37.1493 26.8801 37.5137 26.5151C37.8782 26.1501 38.0829 25.6554 38.0829 25.1397V24.8506C38.0829 24.3348 37.8782 23.8401 37.5137 23.4751C37.1493 23.1102 36.6549 22.9048 36.1391 22.904L28.1548 22.8985Z" fill="#093F68"/>
<path d="M35.7261 27.4469H27.7417C26.5147 27.4469 25.5199 28.4417 25.5199 29.6688V29.9634C25.5199 31.1904 26.5147 32.1852 27.7417 32.1852H35.7261C36.9532 32.1852 37.948 31.1904 37.948 29.9634V29.6688C37.948 28.4417 36.9532 27.4469 35.7261 27.4469Z" fill="#FFC9B0"/>
<path d="M35.7262 32.4606H27.7418C27.0797 32.4598 26.445 32.1965 25.9768 31.7284C25.5087 31.2602 25.2454 30.6255 25.2446 29.9634V29.6688C25.2454 29.0067 25.5087 28.372 25.9768 27.9038C26.445 27.4357 27.0797 27.1724 27.7418 27.1716H35.7262C36.388 27.1724 37.0224 27.4358 37.4901 27.904C37.9579 28.3722 38.2206 29.007 38.2206 29.6688V29.9634C38.2206 30.6252 37.9579 31.26 37.4901 31.7282C37.0224 32.1964 36.388 32.4598 35.7262 32.4606ZM27.7418 27.7223C27.2258 27.723 26.7311 27.9283 26.3662 28.2932C26.0013 28.6581 25.796 29.1528 25.7953 29.6688V29.9634C25.796 30.4794 26.0013 30.9741 26.3662 31.339C26.7311 31.7039 27.2258 31.9092 27.7418 31.9099H35.7262C36.2419 31.9092 36.7363 31.7038 37.1008 31.3388C37.4652 30.9739 37.6699 30.4792 37.6699 29.9634V29.6688C37.6699 29.153 37.4652 28.6583 37.1008 28.2934C36.7363 27.9284 36.2419 27.723 35.7262 27.7223H27.7418Z" fill="#093F68"/>
<path d="M34.9167 32.1852H26.9323C25.7052 32.1852 24.7104 33.1799 24.7104 34.407V34.7016C24.7104 35.9287 25.7052 36.9235 26.9323 36.9235H34.9167C36.1437 36.9235 37.1385 35.9287 37.1385 34.7016V34.407C37.1385 33.1799 36.1437 32.1852 34.9167 32.1852Z" fill="#FFC9B0"/>
<path d="M34.9167 37.1989H26.9324C26.2703 37.1981 25.6355 36.9348 25.1674 36.4666C24.6992 35.9985 24.4359 35.3637 24.4352 34.7017V34.4071C24.4359 33.745 24.6992 33.1103 25.1674 32.6421C25.6355 32.174 26.2703 31.9106 26.9324 31.9099H34.9167C35.5788 31.9106 36.2135 32.174 36.6817 32.6421C37.1498 33.1103 37.4132 33.745 37.4139 34.4071V34.7017C37.4132 35.3637 37.1498 35.9985 36.6817 36.4666C36.2135 36.9348 35.5788 37.1981 34.9167 37.1989ZM26.9324 32.4606C26.4163 32.4613 25.9216 32.6666 25.5568 33.0315C25.1919 33.3964 24.9866 33.8911 24.9858 34.4071V34.7017C24.9866 35.2177 25.1919 35.7124 25.5568 36.0773C25.9216 36.4422 26.4163 36.6475 26.9324 36.6482H34.9167C35.4327 36.6475 35.9274 36.4422 36.2923 36.0773C36.6572 35.7124 36.8625 35.2177 36.8632 34.7017V34.4071C36.8625 33.8911 36.6572 33.3964 36.2923 33.0315C35.9274 32.6666 35.4327 32.4613 34.9167 32.4606H26.9324Z" fill="#093F68"/>
<path d="M16.7316 41.7609L5.08819 30.7562L0.259033 35.869L11.5886 47.2233L16.7316 41.7609Z" fill="#FF7A00"/>
<path d="M11.6024 47.4986C11.5661 47.4988 11.5302 47.4919 11.4967 47.4782C11.4631 47.4645 11.4326 47.4443 11.4069 47.4188L0.077363 36.0617C0.0277389 36.0104 0 35.9418 0 35.8704C0 35.799 0.0277389 35.7304 0.077363 35.679L4.90652 30.569C4.93123 30.5423 4.96099 30.5208 4.99407 30.5057C5.02715 30.4906 5.0629 30.4822 5.09925 30.4809C5.17165 30.479 5.24188 30.5057 5.29472 30.5553L16.9409 41.5682C16.9921 41.6198 17.0209 41.6895 17.0209 41.7623C17.0209 41.835 16.9921 41.9048 16.9409 41.9564L11.7868 47.427C11.7616 47.4535 11.7313 47.4748 11.6977 47.4894C11.6641 47.5041 11.628 47.5119 11.5914 47.5124L11.6024 47.4986ZM0.641775 35.8635L11.5831 46.8296L16.3434 41.7719L5.09925 31.1472L0.641775 35.8635Z" fill="#093F68"/>
</svg>
