<svg width="12" height="12" viewBox="0 0 12 12" fill="none" xmlns="http://www.w3.org/2000/svg">
<g clip-path="url(#clip0_88_1922)">
<path d="M5.98998 3.95C6.24771 3.95 6.45665 3.74106 6.45665 3.48333C6.45665 3.2256 6.24771 3.01666 5.98998 3.01666C5.73225 3.01666 5.52332 3.2256 5.52332 3.48333C5.52332 3.74106 5.73225 3.95 5.98998 3.95Z" fill="#363636"/>
<path d="M7.00002 8.33335H6.33335V4.70001H5.33335C5.24495 4.70001 5.16016 4.73513 5.09765 4.79764C5.03514 4.86016 5.00002 4.94494 5.00002 5.03335C5.00002 5.12175 5.03514 5.20654 5.09765 5.26905C5.16016 5.33156 5.24495 5.36668 5.33335 5.36668H5.66669V8.33335H5.00002C4.91161 8.33335 4.82683 8.36846 4.76432 8.43098C4.70181 8.49349 4.66669 8.57827 4.66669 8.66668C4.66669 8.75508 4.70181 8.83987 4.76432 8.90238C4.82683 8.96489 4.91161 9.00001 5.00002 9.00001H7.00002C7.08843 9.00001 7.17321 8.96489 7.23572 8.90238C7.29824 8.83987 7.33335 8.75508 7.33335 8.66668C7.33335 8.57827 7.29824 8.49349 7.23572 8.43098C7.17321 8.36846 7.08843 8.33335 7.00002 8.33335Z" fill="#363636"/>
<path d="M6.00002 11.3334C4.94519 11.3334 3.91404 11.0206 3.03698 10.4345C2.15992 9.84849 1.47633 9.01554 1.07267 8.041C0.668998 7.06646 0.56338 5.99411 0.769168 4.95954C0.974956 3.92498 1.48291 2.97467 2.22879 2.22879C2.97467 1.48291 3.92498 0.974956 4.95954 0.769168C5.99411 0.56338 7.06646 0.668998 8.041 1.07267C9.01554 1.47633 9.84849 2.15992 10.4345 3.03698C11.0206 3.91404 11.3334 4.94519 11.3334 6.00002C11.3334 7.41451 10.7715 8.77107 9.77126 9.77126C8.77107 10.7715 7.41451 11.3334 6.00002 11.3334ZM6.00002 1.33336C5.07704 1.33336 4.17479 1.60705 3.40736 2.11983C2.63993 2.63261 2.04179 3.36145 1.68859 4.21417C1.33538 5.06689 1.24296 6.0052 1.42302 6.91044C1.60309 7.81569 2.04755 8.64721 2.70019 9.29985C3.35284 9.9525 4.18436 10.397 5.0896 10.577C5.99485 10.7571 6.93316 10.6647 7.78588 10.3115C8.6386 9.95825 9.36744 9.36011 9.88021 8.59268C10.393 7.82525 10.6667 6.923 10.6667 6.00002C10.6667 4.76235 10.175 3.57536 9.29985 2.70019C8.42468 1.82502 7.2377 1.33336 6.00002 1.33336Z" fill="#363636"/>
</g>
<defs>
<clipPath id="clip0_88_1922">
<rect width="12" height="12" fill="white"/>
</clipPath>
</defs>
</svg>
