<svg width="135" height="103" viewBox="0 0 135 103" fill="none" xmlns="http://www.w3.org/2000/svg">
<path opacity="0.45" d="M67.5 102.6C104.779 102.6 135 97.8893 135 92.0789C135 86.2685 104.779 81.5582 67.5 81.5582C30.2208 81.5582 0 86.2685 0 92.0789C0 97.8893 30.2208 102.6 67.5 102.6Z" fill="#E6E6E6"/>
<path d="M122.807 84.7551H102.569V90.332H122.807V84.7551Z" fill="#E6E6E6"/>
<path opacity="0.43" d="M118.384 79.3004H98.1454V84.8773H118.384V79.3004Z" fill="#E6E6E6"/>
<path opacity="0.08" d="M3.97668 57.1891V64.3863C3.97668 64.3863 9.87292 65.0763 14.8261 61.7135V55.2456L10.5656 54.3722L3.97668 57.1891Z" fill="black"/>
<path d="M110.48 8.26727H43.4352V90.3713H110.48V8.26727Z" fill="#C9C9C9"/>
<path opacity="0.08" d="M106.391 19.3338H54.197V85.0651H106.391V19.3338Z" fill="black"/>
<path d="M103.053 15.5474H50.8587V81.2787H103.053V15.5474Z" fill="white"/>
<path opacity="0.08" d="M45.4506 26.3214C45.4506 26.3214 55.5531 27.339 58.0568 41.0958L66.1688 29.741C66.1688 29.741 70.8883 29.1426 68.8019 33.6715C67.4332 36.6499 67.0994 45.2272 63.5024 51.0312C56.3696 62.5247 51.5912 75.4412 49.4691 88.965L49.2938 90.1005L44.3907 90.332L45.7469 48.376L45.4506 26.3214Z" fill="black"/>
<path d="M64.2953 0.118042H59.8887V19.3339H64.2953V0.118042Z" fill="#F2F2F2"/>
<path d="M94.102 0.118042H89.6954V19.3339H94.102V0.118042Z" fill="#F2F2F2"/>
<path d="M96.8477 25.5921H85.7187V37.2395H96.8477V25.5921Z" fill="#FFD200"/>
<path d="M96.8477 42.5894H85.7187V54.2368H96.8477V42.5894Z" fill="#FFD200"/>
<path d="M96.8477 59.5911H85.7187V71.2385H96.8477V59.5911Z" fill="#FFD200"/>
<path d="M25.4669 31.5403C22.5 38.2571 13.6327 51.3588 5.06586 52.8699V57.5778C5.06586 57.5778 20.4136 56.7436 33.9211 42.6244C39.5419 36.7373 39.446 32.6714 37.4221 29.9288C34.2132 25.5921 27.6618 26.566 25.4669 31.5403Z" fill="#68E1FD"/>
<path opacity="0.08" d="M25.4669 31.5403C22.5 38.2571 13.6327 51.3588 5.06586 52.8699V57.5778C5.06586 57.5778 20.4136 56.7436 33.9211 42.6244C39.5419 36.7373 39.446 32.6714 37.4221 29.9288C34.2132 25.5921 27.6618 26.566 25.4669 31.5403Z" fill="black"/>
<path d="M80.294 28.9418H60.2643V33.8899H80.294V28.9418Z" fill="#A5A5A5"/>
<path opacity="0.44" d="M80.294 45.939H60.2643V50.8871H80.294V45.939Z" fill="#A5A5A5"/>
<path opacity="0.13" d="M80.294 62.9364H60.2643V67.8845H80.294V62.9364Z" fill="#A5A5A5"/>
<path d="M88.2224 31.4136L90.4465 34.4008L94.202 28.9418" stroke="white" stroke-miterlimit="10"/>
<path d="M88.2224 48.1576L90.4465 51.1448L94.202 45.6857" stroke="white" stroke-miterlimit="10"/>
<path d="M88.2224 64.9016L90.4465 67.8888L94.202 62.4297" stroke="white" stroke-miterlimit="10"/>
<path d="M32.5733 20.5698L34.1715 25.5834L30.3784 28.1077L29.0139 19.4169L32.5733 20.5698Z" fill="#F4A28C"/>
<path d="M30.1863 14.2722C30.5411 13.9073 30.9774 13.6411 31.4556 13.4977C31.9338 13.3543 32.4386 13.3383 32.9242 13.4511C33.4097 13.564 33.8607 13.8021 34.2359 14.1438C34.6112 14.4855 34.8988 14.92 35.0727 15.4077C35.9073 17.7136 36.696 21.1331 34.0963 21.7183C30.1154 22.5918 28.851 17.255 28.851 17.255C29.0061 16.1449 29.4706 15.1074 30.1863 14.2722Z" fill="#F4A28C"/>
<path d="M30.1739 17.6437C30.1739 17.6437 29.3101 16.8882 28.922 17.9625C28.5339 19.0369 30.0528 19.5522 30.5077 19.0106C30.9625 18.4691 30.1739 17.6437 30.1739 17.6437Z" fill="#F4A28C"/>
<path d="M25.9509 30.5664C26.524 29.238 27.3636 28.0543 28.4127 27.0958C29.4618 26.1372 30.6958 25.4263 32.0308 25.0113C37.1842 23.391 46.6691 25.1641 49.5567 30.2083C53.5168 37.1129 47.7207 59.0321 47.7207 59.0321L30.4284 60.4558C30.4284 60.4558 20.8851 42.4759 25.9509 30.5664Z" fill="#68E1FD"/>
<path d="M47.7249 59.0496L45.4465 90.2011H41.8454L38.6323 65.9978L30.6705 60.4558L47.7249 59.0496Z" fill="#24285B"/>
<path d="M30.6705 60.4558L25.7048 90.2011H29.5647L37.902 65.4912L30.6705 60.4558Z" fill="#24285B"/>
<path opacity="0.08" d="M33.5288 24.5396C33.5288 24.5396 25.421 51.8392 48.814 53.6472L47.7249 59.0495L30.4284 60.4558C30.4284 60.4558 23.6684 48.1227 24.5864 36.3486C24.5864 36.3486 24.7325 29.3829 29.4144 26.304C30.6504 25.4162 32.0531 24.8147 33.5288 24.5396Z" fill="black"/>
<path d="M26.6103 90.14L24.2819 91.9305C24.1949 91.9976 24.1303 92.0918 24.0975 92.1996C24.0646 92.3073 24.0651 92.4232 24.0989 92.5307C24.1326 92.6381 24.1979 92.7317 24.2855 92.798C24.3731 92.8643 24.4784 92.9 24.5865 92.9H28.4839C28.6193 92.8989 28.7488 92.8418 28.8441 92.7412C28.9395 92.6406 28.993 92.5046 28.993 92.3629V90.14H26.6103Z" fill="#68E1FD"/>
<path d="M44.9959 90.14L47.1866 91.9305C47.2722 91.9999 47.3348 92.0957 47.3656 92.2043C47.3964 92.3129 47.3939 92.4289 47.3585 92.536C47.323 92.643 47.2563 92.7357 47.1678 92.8011C47.0794 92.8664 46.9736 92.901 46.8653 92.9H44.0945C43.9 92.9 43.7074 92.8599 43.5276 92.782C43.3479 92.7041 43.1846 92.5899 43.047 92.446C42.9095 92.302 42.8004 92.1311 42.7259 91.943C42.6515 91.7549 42.6132 91.5533 42.6132 91.3497V90.14H44.9959Z" fill="#68E1FD"/>
<path d="M40.5893 24.8671C39.726 26.317 39.2683 27.9911 39.2683 29.6995C39.2683 31.4078 39.726 33.082 40.5893 34.5318C42.4755 37.8684 47.9544 44.3712 51.71 48.6555C52.1339 49.1447 52.6634 49.5208 53.2543 49.7525C53.8452 49.9842 54.4805 50.0647 55.1072 49.9874C55.7339 49.9101 56.3339 49.6771 56.8572 49.3079C57.3804 48.9387 57.8118 48.444 58.1153 47.865L66.1856 32.9815L63.4482 31.1428L56.0539 42.4977C56.0539 42.4977 50.9923 25.0855 40.5893 24.8671Z" fill="#68E1FD"/>
<path opacity="0.2" d="M40.5893 24.8671C39.726 26.317 39.2683 27.9911 39.2683 29.6995C39.2683 31.4078 39.726 33.082 40.5893 34.5318C42.4755 37.8684 47.9544 44.3712 51.71 48.6555C52.1339 49.1447 52.6634 49.5208 53.2543 49.7525C53.8452 49.9842 54.4805 50.0647 55.1072 49.9874C55.7339 49.9101 56.3339 49.6771 56.8572 49.3079C57.3804 48.9387 57.8118 48.444 58.1153 47.865L66.1856 32.9815L63.4482 31.1428L56.0539 42.4977C56.0539 42.4977 50.9923 25.0855 40.5893 24.8671Z" fill="white"/>
<path d="M65.23 32.3483C65.23 32.3483 69.8201 30.6014 67.9423 27.8762C66.0646 25.1511 63.4482 31.1517 63.4482 31.1517L65.23 32.3483Z" fill="#F4A28C"/>
<path d="M29.3142 20.8493L27.9247 17.2682C27.7811 16.8961 27.7122 16.497 27.7222 16.0958C27.7323 15.6946 27.8211 15.2999 27.9831 14.9361C28.5464 13.6521 29.623 11.6738 31.2671 10.5689C33.846 8.79577 36.3705 8.78704 36.0868 11.141C35.803 13.4949 36.888 11.0187 37.7559 12.7044C38.6239 14.3902 38.1023 14.9361 36.8295 15.0933C35.5568 15.2505 33.074 15.2025 32.181 16.9188C31.288 18.6352 32.3729 20.7445 29.3142 20.8493Z" fill="#24285B"/>
<path d="M5.06586 52.8698C5.06586 52.8698 2.67482 51.8042 1.76931 54.132C0.863801 56.4597 5.06586 57.5777 5.06586 57.5777V52.8698Z" fill="#F4A28C"/>
</svg>
