<svg width="200" height="124" viewBox="0 0 200 124" fill="none" xmlns="http://www.w3.org/2000/svg">
<mask id="mask0_35_2133" style="mask-type:luminance" maskUnits="userSpaceOnUse" x="62" y="28" width="42" height="39">
<path d="M62.2588 28.9672H103.716V66.4792H62.2588V28.9672Z" fill="white"/>
</mask>
<g mask="url(#mask0_35_2133)">
<path fill-rule="evenodd" clip-rule="evenodd" d="M62.2588 29.1089C75.1985 36.062 84.0692 43.3489 87.706 52.2154C89.7152 57.0901 91.1974 61.8674 92.7775 66.4321C92.2744 55.8691 96.7486 45.4035 103.587 37.3269C100.835 38.761 98.2547 39.7158 95.8843 39.7158C85.1933 39.7158 85.315 28.2953 62.2588 29.1089Z" fill="#0F7187"/>
</g>
<path fill-rule="evenodd" clip-rule="evenodd" d="M105.143 14.723C106.889 16.8014 107.943 19.4765 107.943 22.3949C107.943 28.9672 102.611 34.2703 96.0329 34.2703C89.4549 34.2703 84.1231 28.9672 84.1231 22.3949C84.1231 20.4583 84.6024 18.6433 85.3895 17.041L81.8976 15.0097C81.4422 16.3729 82.3267 16.9934 82.4007 18.5925C82.4483 19.595 82.0193 20.3604 81.5633 21.0048C81.6818 21.1973 81.6818 21.41 81.5633 21.602L80.2467 23.5857C80.0779 23.8253 79.7198 23.8962 79.4801 23.7275C79.2405 23.5587 79.1696 23.2249 79.3347 22.9615L80.6519 21.0016C80.7698 20.7858 81.0095 20.7149 81.2258 20.7619C81.584 20.2123 81.8945 19.5204 81.8474 18.6132C81.7998 17.6345 80.7466 15.4588 81.4655 14.7669L78.4772 13.0466L93.9529 0L111.843 10.9444L105.143 14.723Z" fill="#0F7187"/>
<mask id="mask1_35_2133" style="mask-type:luminance" maskUnits="userSpaceOnUse" x="94" y="22" width="44" height="71">
<path d="M94.2365 22.6023H137.621V92.4802H94.2365V22.6023Z" fill="white"/>
</mask>
<g mask="url(#mask1_35_2133)">
<path fill-rule="evenodd" clip-rule="evenodd" d="M111.623 92.4771C99.6899 60.6729 102.321 41.6757 137.621 22.7256C103.107 21.5078 74.8642 71.4491 111.623 92.4771Z" fill="#00ADEF"/>
</g>
<path d="M7.86825 123.949C10.6963 123.949 12.9752 122.9 14.3183 121.065C14.4124 120.951 14.4505 120.81 14.4505 120.639V115.854C14.4505 115.599 14.3183 115.466 14.0628 115.466H8.36974C8.11423 115.466 7.98199 115.599 7.98199 115.854V118.181C7.98199 118.426 8.11423 118.568 8.36974 118.568H10.9232V119.362C10.2233 120.176 9.16376 120.658 7.86825 120.658C5.46609 120.658 3.87752 118.994 3.87752 116.298C3.87752 113.726 5.46609 112.137 7.86825 112.137C9.2394 112.137 10.3461 112.657 11.065 113.528C11.2163 113.726 11.3866 113.764 11.585 113.622L14.1384 111.92C14.3558 111.769 14.3939 111.589 14.2331 111.399C12.8429 109.679 10.6111 108.648 7.86825 108.648C3.13958 108.648 0 111.627 0 116.298C0 120.97 3.13958 123.949 7.86825 123.949Z" fill="#0F7187"/>
<path d="M26.8976 123.949C30.463 123.949 33.4703 122.417 33.4703 118.662V109.423C33.4703 109.168 33.3286 109.035 33.0826 109.035H29.8864C29.6309 109.035 29.4986 109.168 29.4986 109.423V117.632C29.4986 119.627 28.6094 120.459 26.8976 120.459C25.2143 120.459 24.3066 119.627 24.3066 117.632V109.423C24.3066 109.168 24.1743 109.035 23.9188 109.035H20.7221C20.4761 109.035 20.3344 109.168 20.3344 109.423V118.662C20.3344 122.417 23.4364 123.949 26.8976 123.949Z" fill="#0F7187"/>
<path d="M46.2676 109.035C45.9745 108.44 45.5111 108.44 45.218 109.035L38.5601 123.098C38.4374 123.372 38.5601 123.561 38.8442 123.561H42.2578C42.4662 123.561 42.627 123.448 42.7027 123.249L43.1751 122.029H48.3105L48.7835 123.249C48.8591 123.448 49.0199 123.561 49.2278 123.561H52.6419C52.9255 123.561 53.0487 123.372 52.9255 123.098L46.2676 109.035ZM45.7476 115.476L47.1758 119.126H44.3103L45.7476 115.476Z" fill="#0F7187"/>
<path d="M67.5675 118.105C68.9952 117.357 69.8088 115.806 69.8088 113.707C69.8088 111.22 68.6927 109.035 64.5977 109.035H58.564C58.309 109.035 58.1763 109.168 58.1763 109.423V123.174C58.1763 123.429 58.309 123.562 58.564 123.562H61.6756C61.9311 123.562 62.0633 123.429 62.0633 123.174V118.606H63.6995L66.0355 123.268C66.1297 123.467 66.272 123.562 66.4799 123.562H70.0072C70.3003 123.562 70.414 123.372 70.2818 123.098L67.5675 118.105ZM63.9264 112.326C64.7019 112.326 65.9408 112.326 65.9408 113.745C65.9408 115.315 64.4655 115.315 63.9264 115.315H62.0633V112.326H63.9264Z" fill="#0F7187"/>
<path d="M81.3013 123.562C86.815 123.562 89.2171 120.847 89.2171 116.317C89.2171 111.712 86.7393 109.035 81.3013 109.035H76.4404C76.1854 109.035 76.0526 109.168 76.0526 109.423V123.174C76.0526 123.429 76.1854 123.562 76.4404 123.562H81.3013ZM79.9587 112.326H81.3203C84.0441 112.326 85.3491 113.745 85.3491 116.261C85.3491 118.776 84.0441 120.271 81.3203 120.271H79.9587V112.326Z" fill="#0F7187"/>
<path d="M98.5247 123.562C98.7802 123.562 98.9124 123.429 98.9124 123.174V109.423C98.9124 109.168 98.7802 109.035 98.5247 109.035H95.4322C95.1772 109.035 95.0444 109.168 95.0444 109.423V123.174C95.0444 123.429 95.1772 123.562 95.4322 123.562H98.5247Z" fill="#0F7187"/>
<path d="M111.855 109.035C111.562 108.44 111.098 108.44 110.805 109.035L104.147 123.098C104.025 123.372 104.147 123.561 104.431 123.561H107.845C108.053 123.561 108.214 123.448 108.29 123.249L108.762 122.029H113.898L114.371 123.249C114.446 123.448 114.607 123.561 114.815 123.561H118.229C118.513 123.561 118.636 123.372 118.513 123.098L111.855 109.035ZM111.335 115.476L112.763 119.126H109.897L111.335 115.476Z" fill="#0F7187"/>
<path d="M127.13 123.561C127.386 123.561 127.518 123.429 127.518 123.174V116.242L135.557 123.561C136.162 124.12 136.597 123.874 136.597 123.212V109.423C136.597 109.168 136.465 109.035 136.209 109.035H133.249C132.994 109.035 132.862 109.168 132.862 109.423V116.109L124.728 108.941C124.189 108.468 123.782 108.704 123.782 109.366V123.174C123.782 123.429 123.915 123.561 124.17 123.561H127.13Z" fill="#0F7187"/>
<path d="M147.484 123.949C150.236 123.949 153.177 122.881 153.177 119.495C153.177 116.8 151.295 115.637 149.574 114.842C147.853 114.048 146.491 113.622 146.491 112.752C146.491 112.099 147.134 111.882 148.023 111.882C148.893 111.882 150 112.099 150.945 112.421C151.181 112.506 151.352 112.402 151.427 112.175L152.127 109.792C152.203 109.537 152.127 109.386 151.881 109.309C150.557 108.903 149.007 108.648 147.891 108.648C145.176 108.648 142.557 109.849 142.557 113.026C142.557 115.296 144.013 116.431 145.696 117.301C147.399 118.181 149.224 118.701 149.224 119.665C149.224 120.403 148.505 120.677 147.503 120.677C146.453 120.677 145.063 120.384 143.824 119.977C143.588 119.901 143.417 119.959 143.332 120.214L142.5 122.748C142.425 123.003 142.519 123.155 142.774 123.23C144.533 123.732 146.047 123.949 147.484 123.949Z" fill="#0F7187"/>
<path d="M162.391 123.562C162.647 123.562 162.779 123.429 162.779 123.174V118.662H167.858V123.174C167.858 123.429 167.99 123.562 168.246 123.562H171.338C171.593 123.562 171.726 123.429 171.726 123.174V109.423C171.726 109.168 171.593 109.035 171.338 109.035H168.246C167.99 109.035 167.858 109.168 167.858 109.423V115.372H162.779V109.423C162.779 109.168 162.647 109.035 162.391 109.035H159.299C159.044 109.035 158.911 109.168 158.911 109.423V123.174C158.911 123.429 159.044 123.562 159.299 123.562H162.391Z" fill="#0F7187"/>
<path d="M181.601 123.562C181.856 123.562 181.988 123.429 181.988 123.174V109.423C181.988 109.168 181.856 109.035 181.601 109.035H178.508C178.253 109.035 178.12 109.168 178.12 109.423V123.174C178.12 123.429 178.253 123.562 178.508 123.562H181.601Z" fill="#0F7187"/>
<path d="M191.867 123.562C192.122 123.562 192.254 123.429 192.254 123.174V118.606H195.564C198.317 118.606 200 116.724 200 113.707C200 111.22 198.884 109.035 194.789 109.035H188.755C188.5 109.035 188.367 109.168 188.367 109.423V123.174C188.367 123.429 188.5 123.562 188.755 123.562H191.867ZM192.254 112.326H194.118C194.893 112.326 196.132 112.326 196.132 113.745C196.132 115.315 194.657 115.315 194.118 115.315H192.254V112.326Z" fill="#0F7187"/>
</svg>
